<svg id="SvgjsSvg1001" width="288" height="288" xmlns="http://www.w3.org/2000/svg" version="1.1" xmlns:xlink="http://www.w3.org/1999/xlink" xmlns:svgjs="http://svgjs.com/svgjs"><defs id="SvgjsDefs1002"></defs><g id="SvgjsG1008" transform="matrix(1,0,0,1,0,0)"><svg xmlns="http://www.w3.org/2000/svg" data-name="Layer 1" viewBox="0 0 122.88 113.97" width="288" height="288"><path fill-rule="evenodd" d="M18.69,73.37,59.18,32.86c2.14-2.14,2.41-2.23,4.63,0l40.38,40.51V114h-30V86.55a3.38,3.38,0,0,0-3.37-3.37H52.08a3.38,3.38,0,0,0-3.37,3.37V114h-30V73.37ZM60.17.88,0,57.38l14.84,7.79,42.5-42.86c3.64-3.66,3.68-3.74,7.29-.16l43.41,43,14.84-7.79L62.62.79c-1.08-1-1.24-1.13-2.45.09Z" fill="#ffffff" class="color000 svgShape"></path></svg></g></svg>